<?xml version="1.0" encoding="UTF-8" standalone="no"?>
<!DOCTYPE svg PUBLIC "-//W3C//DTD SVG 1.1//EN" "http://www.w3.org/Graphics/SVG/1.1/DTD/svg11.dtd">
<svg width="100%" height="100%" viewBox="0 0 1024 1024" version="1.1" xmlns="http://www.w3.org/2000/svg" xmlns:xlink="http://www.w3.org/1999/xlink" xml:space="preserve" xmlns:serif="http://www.serif.com/" style="fill-rule:evenodd;clip-rule:evenodd;stroke-linecap:round;stroke-linejoin:round;stroke-miterlimit:1.5;">
    <g transform="matrix(1.632978,0,0,1.613658,-921.734022,-442.520336)">
        <circle cx="877.925" cy="589.604" r="297.468" style="fill:rgb(128,186,92);fill-opacity:0;stroke:rgb(130,188,92);stroke-width:21.5px;"/>
    </g>
    <g transform="matrix(1.668487,0,0,1.668487,-964.58642,-464.795289)">
        <path d="M740.183,606.23L740.183,393.311C740.481,388.447 744.786,384.762 753.03,384.507L826.248,384.388C833.307,385.046 838.247,389.817 838.522,394.466L838.978,527.013C868.315,478.807 898.979,433.741 930.249,390.105C932.501,387.187 936.091,384.99 941.435,383.738L1038.973,383.738C1043.341,386.098 1044.656,389.267 1044.026,392.469L979.756,479.186C971.449,464.434 956.082,459.388 947.199,461.966C930.08,464.944 922.231,477.477 919.593,496.093L893.349,496.708C877.891,497.129 881.71,515.443 890.624,514.36L911.526,514.36C908.28,521.666 901.127,532.444 894.827,538.558C891.737,541.557 888.496,544.205 885.65,547.093C848.875,584.411 798.778,595.587 753.675,612.828C747.477,614.507 740.54,613.306 740.183,606.23Z" style="fill:rgb(253,253,253);"/>
    </g>
    <g transform="matrix(1.668487,0,0,1.668487,-964.58642,-464.795289)">
        <path d="M751.184,656.315L764.93,634.715C729.482,626.791 703.72,641.042 687.63,675.628C681.209,698.599 682.98,720.108 696.625,739.495C707.483,754.405 721.035,764.934 738.131,769.7C760.083,773.707 781.65,773.756 801.936,760.588C820.59,746.43 831.208,727.968 833.817,705.218C833.953,688.265 829.988,673.115 820.459,660.411L801.607,681.23C806.955,700.564 805.365,717.482 792.054,730.322C767.362,750.031 742.663,748.67 721.08,725.799C710.052,708.767 707.227,690.521 723.415,669.243C731.205,661.792 740.096,656.698 751.184,656.315Z" style="fill:rgb(253,253,253);"/>
    </g>
    <g transform="matrix(1.668487,0,0,1.668487,-964.58642,-464.795289)">
        <path d="M860.468,632.796C890.922,618.411 916.524,599.274 937.478,575.584L1071.934,750.598C1079.353,760.617 1072.543,770.548 1060.077,770.866L968.013,770.937C962.701,771.024 957.236,765.938 951.697,758.404L860.468,632.796Z" style="fill:rgb(253,252,252);"/>
    </g>
    <g transform="matrix(1.668487,0,0,1.668487,-964.58642,-464.795289)">
        <path d="M750.513,678.842C770.898,647.69 795.938,622.614 826.03,605.688C845.632,594.663 879.74,577.015 898.036,558.501C918.904,537.384 933.904,511.741 941.505,485.915C947.151,472.432 957.633,472.151 965.804,490.448C967.518,494.287 970.255,497.705 972.744,502.256C980.617,516.27 989.01,528.718 998.079,539.129C1008.694,553.845 992.761,565.482 982.874,556.086C973.59,544.446 964.675,531.597 956.108,517.604C944.687,546.083 925.588,570.365 898.019,590.019C883.587,601.087 867.752,610.224 851.054,618.175C817.656,640.092 798.646,655.893 767.722,702.966C755.202,722.51 730.343,704.318 750.513,678.842Z" style="fill:rgb(135,197,98);"/>
    </g>
    <g transform="matrix(1.668487,0,0,1.668487,-964.58642,-464.795289)">
        <path d="M970.644,561.758C1012.101,630.322 1075.483,533.35 1011.949,512.952C1006.721,513.052 1001.962,513.551 997.397,514.216C991.943,507.187 987.283,499.13 983.719,491.642C1011.352,481.032 1035.356,488.507 1054.301,515.371C1066.795,537.605 1067.229,559.581 1052.401,581.23C1041.032,596.928 1026.444,605.309 1008.511,606.078C988.071,606.247 971.513,597.196 958.969,578.607C956.641,575.02 954.157,570.567 953.814,566.751C954.036,562.001 958.512,557.394 964.497,557.316C967.439,557.278 969.784,560.334 970.644,561.758Z" style="fill:rgb(131,191,94);"/>
    </g>
</svg>
